<?xml version="1.0"?><svg width="808.77936" height="333.51727" xmlns="http://www.w3.org/2000/svg" xmlns:xlink="http://www.w3.org/1999/xlink">
 <title>stop_red_button</title>
 <defs>
  <linearGradient xlink:href="#linearGradient3024-9" id="linearGradient3271" y2="0.281215" x2="0.58582" y1="1.498645" x1="0.482914"/>
  <linearGradient id="linearGradient3024-9">
   <stop stop-color="#ddc20f" offset="0" id="stop3026-4"/>
   <stop stop-color="#ddc20f" stop-opacity="0" offset="1" id="stop3028-0"/>
  </linearGradient>
  <linearGradient xlink:href="#linearGradient3037-6" id="linearGradient3273" y2="1.438999" x2="0.272721" y1="-0.572778" x1="0.272721"/>
  <linearGradient id="linearGradient3037-6">
   <stop stop-color="#ffffff" offset="0" id="stop3039-10"/>
   <stop stop-color="#ffffff" stop-opacity="0" offset="1" id="stop3041-1"/>
  </linearGradient>
 </defs>
 <metadata id="metadata4">image/svg+xml</metadata>
 <g>
  <title>Layer 1</title>
  <g id="layer1">
   <g id="g4548" transform="matrix(3.06802, 0, 0, 3.06802, -1851.94, -1004.12)">
    <g id="g4543">
     <path fill="#ff0000" id="rect3265" d="m629.049805,330.996063l215.498779,0c8.427307,0 15.21167,6.784424 15.21167,15.2117l0,70.987854c0,8.427277 -6.784363,15.2117 -15.21167,15.2117l-215.498779,0c-8.427246,0 -15.21167,-6.784424 -15.21167,-15.2117l0,-70.987854c0,-8.427277 6.784424,-15.2117 15.21167,-15.2117z"/>
     <path fill="url(#linearGradient3271)" id="path3267" d="m632.671875,425.088226c69.84314,-0.42157 139.807251,0.059601 209.584351,-0.251495c9.836914,0.279602 12.833069,-5.734863 11.011353,-9.682159c-0.598511,-11.379791 1.374695,-22.939667 -1.039917,-34.201965c-4.608459,-4.45694 -15.737549,-3.146606 -23.766357,-3.15213c-66.996948,0.142273 -134.072388,-0.367523 -201.019958,0.275757c-8.197693,1.548248 -8.28418,6.815552 -7.281311,10.483673c0.463257,11.054138 -1.298584,22.256561 0.949829,33.211853c2.098328,2.194702 7.086304,3.245453 11.562012,3.316467z"/>
     <path fill="url(#linearGradient3273)" id="path3269" d="m840.825806,337.060455c-69.840454,1.022919 -139.801575,-0.144684 -209.575806,0.610229c-9.836548,-0.678406 -12.83252,13.915833 -11.011047,23.494019c0.078552,3.628662 0.086121,7.266815 0.091858,10.907928c20.78418,12.180359 46.936401,22.310913 75.517029,21.014954c43.941589,-1.992493 113.448486,-18.685486 157.48761,-30.359161c-0.172729,-5.894775 -0.453491,-11.773499 -0.947937,-17.620514c-2.09845,-5.3255 -7.086243,-7.875122 -11.561707,-8.047455z"/>
    </g>
   </g>
  </g>
  <text transform="matrix(2.06945, 0, 0, 2.10092, -400.459, -152.576)" xml:space="preserve" text-anchor="middle" font-family="Verdana" font-size="101" id="svg_1" y="192.102815" x="389.858265" stroke-width="0" stroke="#000000" fill="#ffffff">STOP</text>
 </g>
</svg>